<svg data-v-423bf9ae="" xmlns="http://www.w3.org/2000/svg" viewBox="0 0 570.7594365971238 163" class="iconAbove"><!----><!----><!----><g data-v-423bf9ae="" id="d768c85f-1018-48c7-a8bd-6205eeabb134" fill="white" transform="matrix(4.21940920346668,0,0,4.21940920346668,-3.7130730404643373,104.64556855205514)"><path d="M7.43 7.38C7.43 5.63 6.23 4.41 4.34 4.41C3.50 4.41 2.83 4.65 2.32 5.04L2.52 1.86L6.90 1.86L6.90 0.90L1.48 0.90L1.16 6.05L2.27 6.05C2.70 5.66 3.26 5.33 4.12 5.33C5.46 5.33 6.26 6.20 6.26 7.41C6.26 8.88 5.42 9.70 4.09 9.70C2.74 9.70 2.23 8.99 2.03 8.25L0.88 8.37C1.13 9.62 2.06 10.64 4.06 10.64C6.27 10.64 7.43 9.31 7.43 7.38ZM14.71 5.70C14.71 8.68 13.85 9.70 12.52 9.70C11.14 9.70 10.33 8.67 10.33 5.70C10.33 2.62 11.13 1.69 12.54 1.69C13.89 1.69 14.71 2.60 14.71 5.70ZM15.86 5.70C15.86 1.86 14.36 0.77 12.54 0.77C10.63 0.77 9.18 1.86 9.18 5.70C9.18 9.37 10.63 10.64 12.50 10.64C14.36 10.64 15.86 9.37 15.86 5.70ZM28.03 3.78C28.03 2.06 26.94 0.90 24.68 0.90L21.39 0.90L21.39 10.50L22.58 10.50L22.58 6.72L24.75 6.72C26.94 6.72 28.03 5.45 28.03 3.78ZM26.84 3.79C26.84 5.07 26.14 5.77 24.58 5.77L22.58 5.77L22.58 1.86L24.53 1.86C26.08 1.86 26.84 2.56 26.84 3.79ZM33.24 4.07L33.24 3.02C33.03 3.01 32.91 3.01 32.84 3.01C31.81 3.01 31.16 3.61 30.95 4.59L30.90 3.14L29.82 3.14L29.86 4.84L29.86 10.50L31.00 10.50L31.00 6.13C31.00 5.14 31.50 4.06 32.75 4.06C32.89 4.06 33.03 4.06 33.24 4.07ZM39.63 6.73C39.63 9.02 38.82 9.80 37.55 9.80C36.43 9.80 35.48 9.00 35.48 6.73C35.48 4.54 36.29 3.84 37.56 3.84C38.88 3.84 39.63 4.59 39.63 6.73ZM40.82 6.79C40.82 4.24 39.75 3.00 37.58 3.00C35.50 3.00 34.29 4.21 34.29 6.76C34.29 9.46 35.60 10.64 37.49 10.64C39.58 10.64 40.82 9.42 40.82 6.79ZM42.29 13.80C43.51 13.80 43.86 13.10 43.86 11.98L43.86 3.14L42.74 3.14L42.74 12.00C42.74 12.63 42.53 12.82 42.06 12.82L41.45 12.82L41.45 13.79C41.75 13.80 42 13.80 42.29 13.80ZM42.69 1.61L43.92 1.61L43.92 0.35L42.69 0.35ZM49.01 10.64C50.93 10.64 51.53 9.73 51.87 8.90L50.90 8.62C50.64 9.34 50.22 9.79 49.04 9.79C47.53 9.79 46.98 8.64 46.98 7.06L46.98 7.04L52.02 7.04C52.04 6.89 52.05 6.66 52.05 6.52C52.05 4.59 51.44 3.00 48.99 3.00C47.15 3.00 45.78 4.09 45.78 6.76C45.78 9.30 46.84 10.64 49.01 10.64ZM48.99 3.84C50.25 3.84 50.86 4.54 50.86 6.08L50.86 6.17L46.98 6.17C47.07 4.34 48.01 3.84 48.99 3.84ZM56.69 10.64C58.44 10.64 59.33 9.51 59.50 8.32L58.37 8.23C58.21 9.23 57.58 9.73 56.66 9.73C55.19 9.73 54.71 8.51 54.71 6.76C54.71 4.82 55.23 3.89 56.64 3.89C57.62 3.89 58.16 4.41 58.30 5.25L59.46 5.18C59.22 3.93 58.32 3.00 56.67 3.00C55.08 3.00 53.52 3.88 53.52 6.79C53.52 8.97 54.38 10.64 56.69 10.64ZM60.76 3.99L61.64 3.99L61.64 9.20C61.64 10.01 62.10 10.63 62.92 10.63L64.29 10.63L64.29 9.67L63.48 9.67C62.93 9.67 62.78 9.42 62.78 8.96L62.78 3.99L64.16 3.99L64.16 3.14L62.78 3.14L62.78 0.99L61.64 0.99L61.64 3.14L60.76 3.14ZM71.32 8.48C71.32 6.92 70.03 6.57 68.84 6.26C67.35 5.88 66.95 5.56 66.95 4.84C66.95 4.24 67.55 3.85 68.42 3.85C69.36 3.85 69.96 4.17 70.13 4.93L71.16 4.80C70.91 3.56 69.93 3.00 68.42 3.00C66.91 3.00 65.86 3.72 65.86 5.01C65.86 6.19 66.61 6.82 68.22 7.21C69.51 7.52 70.22 7.71 70.22 8.57C70.22 9.48 69.51 9.80 68.47 9.80C67.38 9.80 66.79 9.25 66.60 8.57L65.55 8.78C65.87 10.14 66.93 10.64 68.49 10.64C70.36 10.64 71.32 9.87 71.32 8.48ZM76.01 13.75L77.11 13.75L79.94-0.39L78.83-0.39ZM91.71 7.38C91.71 5.63 90.51 4.41 88.62 4.41C87.78 4.41 87.11 4.65 86.60 5.04L86.80 1.86L91.18 1.86L91.18 0.90L85.76 0.90L85.44 6.05L86.55 6.05C86.98 5.66 87.54 5.33 88.40 5.33C89.74 5.33 90.54 6.20 90.54 7.41C90.54 8.88 89.70 9.70 88.37 9.70C87.02 9.70 86.51 8.99 86.31 8.25L85.16 8.37C85.41 9.62 86.34 10.64 88.34 10.64C90.55 10.64 91.71 9.31 91.71 7.38ZM98.99 5.70C98.99 8.68 98.13 9.70 96.80 9.70C95.42 9.70 94.61 8.67 94.61 5.70C94.61 2.62 95.41 1.69 96.82 1.69C98.17 1.69 98.99 2.60 98.99 5.70ZM100.14 5.70C100.14 1.86 98.64 0.77 96.82 0.77C94.91 0.77 93.46 1.86 93.46 5.70C93.46 9.37 94.91 10.64 96.78 10.64C98.64 10.64 100.14 9.37 100.14 5.70ZM112.67 5.60C112.67 8.18 111.17 9.53 109.07 9.53L106.86 9.53L106.86 1.86L108.79 1.86C111.08 1.86 112.67 2.97 112.67 5.60ZM113.88 5.60C113.88 2.35 111.76 0.90 108.82 0.90L105.67 0.90L105.67 10.50L109.20 10.50C111.87 10.50 113.88 8.79 113.88 5.60ZM122.32 9.73L121.66 9.73C121.35 9.73 121.23 9.60 121.23 9.23L121.23 5.50C121.23 3.85 120.27 3.00 118.55 3.00C116.63 3.00 115.93 3.88 115.75 4.97L116.87 5.10C117.03 4.19 117.56 3.86 118.50 3.86C119.55 3.86 120.12 4.35 120.12 5.46L120.12 6.06L118.73 6.06C116.59 6.06 115.42 6.69 115.42 8.43C115.42 9.60 116.16 10.64 117.75 10.64C118.85 10.64 119.78 10.28 120.16 9.09L120.16 9.45C120.16 10.22 120.64 10.64 121.37 10.64C121.76 10.64 122.05 10.63 122.32 10.60ZM118.02 9.80C117.01 9.80 116.54 9.16 116.54 8.36C116.54 7.18 117.43 6.85 118.72 6.85L120.12 6.85L120.12 7.38C120.12 8.53 119.69 9.80 118.02 9.80ZM123.97 13.83C125.59 13.83 126.04 12.77 126.36 11.91L129.68 3.14L128.49 3.14L127.05 7.29C126.67 8.37 126.36 9.17 126.36 9.17C126.36 9.17 126.10 8.37 125.68 7.28L124.10 3.14L122.88 3.14L125.78 10.49L125.24 11.90C125.02 12.49 124.70 12.89 123.97 12.89L123.26 12.89L123.26 13.79C123.34 13.80 123.56 13.83 123.97 13.83ZM136.15 8.48C136.15 6.92 134.86 6.57 133.67 6.26C132.19 5.88 131.78 5.56 131.78 4.84C131.78 4.24 132.38 3.85 133.25 3.85C134.19 3.85 134.79 4.17 134.96 4.93L136.00 4.80C135.74 3.56 134.76 3.00 133.25 3.00C131.74 3.00 130.69 3.72 130.69 5.01C130.69 6.19 131.45 6.82 133.06 7.21C134.34 7.52 135.06 7.71 135.06 8.57C135.06 9.48 134.34 9.80 133.31 9.80C132.22 9.80 131.63 9.25 131.43 8.57L130.38 8.78C130.70 10.14 131.77 10.64 133.32 10.64C135.20 10.64 136.15 9.87 136.15 8.48Z"></path></g><!----><g data-v-423bf9ae="" id="46af99f9-c239-4c4c-8737-746d3c03f77a" transform="matrix(1.1734029150057563,0,0,1.1734029150057563,232.85553215588504,-6.023077132386)" stroke="none" fill="white"><path d="M23.8 22c-2.1 0-3.8-1.7-3.8-3.8V9.7c0-2.1 1.7-3.8 3.8-3.8 2.1 0 3.8 1.7 3.8 3.8v8.5c0 2.1-1.7 3.8-3.8 3.8zM65.8 22c-2.1 0-3.8-1.7-3.8-3.8V9.7c0-2.1 1.7-3.8 3.8-3.8 2.1 0 3.8 1.7 3.8 3.8v8.5c.1 2.1-1.7 3.8-3.8 3.8z"></path><path d="M79.3 15.9c2.7 0 4.9 2.2 4.9 4.9v54.9c0 2.7-2.2 4.9-4.9 4.9H10.4c-2.7 0-4.9-2.2-4.9-4.9V20.8c0-2.7 2.2-4.9 4.9-4.9h5.9v2.6c0 4.1 3.3 7.4 7.4 7.4 4.1 0 7.4-3.3 7.4-7.4v-2.6h27.3v2.6c0 4.1 3.3 7.4 7.4 7.4 4.1 0 7.4-3.3 7.4-7.4v-2.6h6.1m0-2h-7.9v4.6c0 3-2.4 5.4-5.4 5.4-3 0-5.4-2.4-5.4-5.4v-4.6H29.2v4.6c0 3-2.4 5.4-5.4 5.4-3 0-5.4-2.4-5.4-5.4v-4.6h-7.9c-3.8 0-6.9 3.1-6.9 6.9v54.9c0 3.8 3.1 6.9 6.9 6.9h68.9c3.8 0 6.9-3.1 6.9-6.9V20.8c0-3.8-3.2-6.9-7-6.9z"></path><path d="M8.5 28H81v2H8.5zM47.8 43.6h-5.7c-1 0-1.8-.8-1.8-1.8v-5.7c0-1 .8-1.8 1.8-1.8h5.7c1 0 1.8.8 1.8 1.8v5.7c0 1-.8 1.8-1.8 1.8zm-5.7-8.3c-.4 0-.8.3-.8.8v5.7c0 .4.3.8.8.8h5.7c.4 0 .8-.3.8-.8v-5.7c0-.4-.3-.8-.8-.8h-5.7zM58.6 43.6h-5.7c-1 0-1.8-.8-1.8-1.8v-5.7c0-1 .8-1.8 1.8-1.8h5.7c1 0 1.8.8 1.8 1.8v5.7c0 1-.8 1.8-1.8 1.8zm-5.7-8.3c-.4 0-.8.3-.8.8v5.7c0 .4.3.8.8.8h5.7c.4 0 .8-.3.8-.8v-5.7c0-.4-.3-.8-.8-.8h-5.7zM69.4 43.6h-5.7c-1 0-1.8-.8-1.8-1.8v-5.7c0-1 .8-1.8 1.8-1.8h5.7c1 0 1.8.8 1.8 1.8v5.7c0 1-.8 1.8-1.8 1.8zm-5.7-8.3c-.4 0-.8.3-.8.8v5.7c0 .4.3.8.8.8h5.7c.4 0 .8-.3.8-.8v-5.7c0-.4-.3-.8-.8-.8h-5.7zM80.2 43.6h-5.7c-1 0-1.8-.8-1.8-1.8v-5.7c0-1 .8-1.8 1.8-1.8h5.7c1 0 1.8.8 1.8 1.8v5.7c0 1-.8 1.8-1.8 1.8zm-5.7-8.3c-.4 0-.8.3-.8.8v5.7c0 .4.3.8.8.8h5.7c.4 0 .8-.3.8-.8v-5.7c0-.4-.3-.8-.8-.8h-5.7zM15.5 54.8H9.8C8.8 54.8 8 54 8 53v-5.7c0-1 .8-1.8 1.8-1.8h5.7c1 0 1.8.8 1.8 1.8V53c0 1-.8 1.8-1.8 1.8zm-5.7-8.3c-.4 0-.8.3-.8.8V53c0 .4.3.8.8.8h5.7c.4 0 .8-.3.8-.8v-5.7c0-.4-.3-.8-.8-.8H9.8zM26.3 54.8h-5.7c-1 0-1.8-.8-1.8-1.8v-5.7c0-1 .8-1.8 1.8-1.8h5.7c1 0 1.8.8 1.8 1.8V53c-.1 1-.9 1.8-1.8 1.8zm-5.7-8.3c-.4 0-.8.3-.8.8V53c0 .4.3.8.8.8h5.7c.4 0 .8-.3.8-.8v-5.7c0-.4-.3-.8-.8-.8h-5.7zM37 54.8h-5.7c-1 0-1.8-.8-1.8-1.8v-5.7c0-1 .8-1.8 1.8-1.8H37c1 0 1.8.8 1.8 1.8V53c0 1-.8 1.8-1.8 1.8zm-5.6-8.3c-.4 0-.8.3-.8.8V53c0 .4.3.8.8.8H37c.4 0 .8-.3.8-.8v-5.7c0-.4-.3-.8-.8-.8h-5.6zM47.8 54.3h-5.7c-.7 0-1.3-.6-1.3-1.3v-5.7c0-.7.6-1.3 1.3-1.3h5.7c.7 0 1.3.6 1.3 1.3V53c0 .7-.6 1.3-1.3 1.3zM58.6 54.8h-5.7c-1 0-1.8-.8-1.8-1.8v-5.7c0-1 .8-1.8 1.8-1.8h5.7c1 0 1.8.8 1.8 1.8V53c0 1-.8 1.8-1.8 1.8zm-5.7-8.3c-.4 0-.8.3-.8.8V53c0 .4.3.8.8.8h5.7c.4 0 .8-.3.8-.8v-5.7c0-.4-.3-.8-.8-.8h-5.7zM69.4 54.8h-5.7c-1 0-1.8-.8-1.8-1.8v-5.7c0-1 .8-1.8 1.8-1.8h5.7c1 0 1.8.8 1.8 1.8V53c0 1-.8 1.8-1.8 1.8zm-5.7-8.3c-.4 0-.8.3-.8.8V53c0 .4.3.8.8.8h5.7c.4 0 .8-.3.8-.8v-5.7c0-.4-.3-.8-.8-.8h-5.7zM80.2 54.8h-5.7c-1 0-1.8-.8-1.8-1.8v-5.7c0-1 .8-1.8 1.8-1.8h5.7c1 0 1.8.8 1.8 1.8V53c0 1-.8 1.8-1.8 1.8zm-5.7-8.3c-.4 0-.8.3-.8.8V53c0 .4.3.8.8.8h5.7c.4 0 .8-.3.8-.8v-5.7c0-.4-.3-.8-.8-.8h-5.7zM15.5 66H9.8c-1 0-1.8-.8-1.8-1.8v-5.7c0-1 .8-1.8 1.8-1.8h5.7c1 0 1.8.8 1.8 1.8v5.7c0 1-.8 1.8-1.8 1.8zm-5.7-8.3c-.4 0-.8.3-.8.8v5.7c0 .4.4.8.8.8h5.7c.4 0 .8-.3.8-.8v-5.7c0-.4-.3-.8-.8-.8H9.8zM26.3 66h-5.7c-1 0-1.8-.8-1.8-1.8v-5.7c0-1 .8-1.8 1.8-1.8h5.7c1 0 1.8.8 1.8 1.8v5.7c-.1 1-.9 1.8-1.8 1.8zm-5.7-8.3c-.4 0-.8.3-.8.8v5.7c0 .4.3.8.8.8h5.7c.4 0 .8-.3.8-.8v-5.7c0-.4-.3-.8-.8-.8h-5.7zM37 66h-5.7c-1 0-1.8-.8-1.8-1.8v-5.7c0-1 .8-1.8 1.8-1.8H37c1 0 1.8.8 1.8 1.8v5.7c0 1-.8 1.8-1.8 1.8zm-5.6-8.3c-.4 0-.8.3-.8.8v5.7c0 .4.3.8.8.8H37c.4 0 .8-.3.8-.8v-5.7c0-.4-.3-.8-.8-.8h-5.6zM47.8 66h-5.7c-1 0-1.8-.8-1.8-1.8v-5.7c0-1 .8-1.8 1.8-1.8h5.7c1 0 1.8.8 1.8 1.8v5.7c0 1-.8 1.8-1.8 1.8zm-5.7-8.3c-.4 0-.8.3-.8.8v5.7c0 .4.3.8.8.8h5.7c.4 0 .8-.3.8-.8v-5.7c0-.4-.3-.8-.8-.8h-5.7zM58.6 66h-5.7c-1 0-1.8-.8-1.8-1.8v-5.7c0-1 .8-1.8 1.8-1.8h5.7c1 0 1.8.8 1.8 1.8v5.7c0 1-.8 1.8-1.8 1.8zm-5.7-8.3c-.4 0-.8.3-.8.8v5.7c0 .4.3.8.8.8h5.7c.4 0 .8-.3.8-.8v-5.7c0-.4-.3-.8-.8-.8h-5.7zM69.4 66h-5.7c-1 0-1.8-.8-1.8-1.8v-5.7c0-1 .8-1.8 1.8-1.8h5.7c1 0 1.8.8 1.8 1.8v5.7c0 1-.8 1.8-1.8 1.8zm-5.7-8.3c-.4 0-.8.3-.8.8v5.7c0 .4.3.8.8.8h5.7c.4 0 .8-.3.8-.8v-5.7c0-.4-.3-.8-.8-.8h-5.7zM80.2 66h-5.7c-1 0-1.8-.8-1.8-1.8v-5.7c0-1 .8-1.8 1.8-1.8h5.7c1 0 1.8.8 1.8 1.8v5.7c0 1-.8 1.8-1.8 1.8zm-5.7-8.3c-.4 0-.8.3-.8.8v5.7c0 .4.3.8.8.8h5.7c.4 0 .8-.3.8-.8v-5.7c0-.4-.3-.8-.8-.8h-5.7zM15.5 77.2H9.8c-1 0-1.8-.8-1.8-1.8v-5.7c0-1 .8-1.8 1.8-1.8h5.7c1 0 1.8.8 1.8 1.8v5.7c0 1-.8 1.8-1.8 1.8zM9.8 69c-.4 0-.8.3-.8.7v5.7c0 .4.3.8.8.8h5.7c.4 0 .8-.3.8-.8v-5.7c0-.4-.3-.8-.8-.8H9.8zM26.3 77.2h-5.7c-1 0-1.8-.8-1.8-1.8v-5.7c0-1 .8-1.8 1.8-1.8h5.7c1 0 1.8.8 1.8 1.8v5.7c-.1 1-.9 1.8-1.8 1.8zM20.6 69c-.4 0-.8.3-.8.8v5.7c0 .4.3.8.8.8h5.7c.4 0 .8-.3.8-.8v-5.7c0-.4-.3-.8-.8-.8h-5.7zM37 77.2h-5.7c-1 0-1.8-.8-1.8-1.8v-5.7c0-1 .8-1.8 1.8-1.8H37c1 0 1.8.8 1.8 1.8v5.7c0 1-.8 1.8-1.8 1.8zM31.4 69c-.4 0-.8.3-.8.8v5.7c0 .4.3.8.8.8H37c.4 0 .8-.3.8-.8v-5.7c0-.4-.3-.8-.8-.8h-5.6zM47.8 77.2h-5.7c-1 0-1.8-.8-1.8-1.8v-5.7c0-1 .8-1.8 1.8-1.8h5.7c1 0 1.8.8 1.8 1.8v5.7c0 1-.8 1.8-1.8 1.8zM42.1 69c-.4 0-.8.3-.8.8v5.7c0 .4.3.8.8.8h5.7c.4 0 .8-.3.8-.8v-5.7c0-.4-.3-.8-.8-.8h-5.7zM58.6 77.2h-5.7c-1 0-1.8-.8-1.8-1.8v-5.7c0-1 .8-1.8 1.8-1.8h5.7c1 0 1.8.8 1.8 1.8v5.7c0 1-.8 1.8-1.8 1.8zM52.9 69c-.4 0-.8.3-.8.8v5.7c0 .4.3.8.8.8h5.7c.4 0 .8-.3.8-.8v-5.7c0-.4-.3-.8-.8-.8h-5.7z"></path></g><!----></svg>